<mxfile host="app.diagrams.net" agent="Mozilla/5.0 (Macintosh; Intel Mac OS X 10_15_7) AppleWebKit/605.1.15 (KHTML, like Gecko) Version/17.4.1 Safari/605.1.15" version="24.7.6">
  <diagram name="Page-1" id="jZF9fkQArY0LFM4w15Ik">
    <mxGraphModel dx="1026" dy="691" grid="1" gridSize="10" guides="1" tooltips="1" connect="1" arrows="1" fold="1" page="1" pageScale="1" pageWidth="827" pageHeight="1169" math="0" shadow="0">
      <root>
        <mxCell id="0" />
        <mxCell id="1" parent="0" />
        <mxCell id="AbTIJx63xbjjhj7f3scQ-21" style="edgeStyle=orthogonalEdgeStyle;rounded=0;orthogonalLoop=1;jettySize=auto;html=1;exitX=1;exitY=0.25;exitDx=0;exitDy=0;entryX=0;entryY=0.25;entryDx=0;entryDy=0;" parent="1" source="AbTIJx63xbjjhj7f3scQ-1" target="AbTIJx63xbjjhj7f3scQ-14" edge="1">
          <mxGeometry relative="1" as="geometry" />
        </mxCell>
        <mxCell id="AbTIJx63xbjjhj7f3scQ-1" value="&lt;h2&gt;&lt;font color=&quot;#030303&quot;&gt;Client Tier&lt;/font&gt;&lt;/h2&gt;" style="swimlane;childLayout=stackLayout;horizontal=1;startSize=50;horizontalStack=0;rounded=1;fontSize=14;fontStyle=0;strokeWidth=2;resizeParent=0;resizeLast=1;shadow=0;dashed=0;align=center;arcSize=4;whiteSpace=wrap;html=1;fillColor=#008a00;strokeColor=#005700;movable=1;resizable=1;rotatable=1;deletable=1;editable=1;locked=0;connectable=1;fontColor=#ffffff;" parent="1" vertex="1">
          <mxGeometry x="40" y="160" width="160" height="220" as="geometry" />
        </mxCell>
        <mxCell id="AbTIJx63xbjjhj7f3scQ-5" value="HTML/CSS/JavaScript" style="rounded=1;whiteSpace=wrap;html=1;" parent="1" vertex="1">
          <mxGeometry x="50" y="260" width="140" height="30" as="geometry" />
        </mxCell>
        <mxCell id="AbTIJx63xbjjhj7f3scQ-6" value="ReactJS" style="rounded=1;whiteSpace=wrap;html=1;" parent="1" vertex="1">
          <mxGeometry x="50" y="300" width="140" height="30" as="geometry" />
        </mxCell>
        <mxCell id="AbTIJx63xbjjhj7f3scQ-7" value="TailwindCSS" style="rounded=1;whiteSpace=wrap;html=1;" parent="1" vertex="1">
          <mxGeometry x="50" y="340" width="140" height="30" as="geometry" />
        </mxCell>
        <mxCell id="AbTIJx63xbjjhj7f3scQ-8" value="Web Browser" style="rounded=1;whiteSpace=wrap;html=1;" parent="1" vertex="1">
          <mxGeometry x="50" y="220" width="140" height="30" as="geometry" />
        </mxCell>
        <mxCell id="AbTIJx63xbjjhj7f3scQ-25" style="edgeStyle=orthogonalEdgeStyle;rounded=0;orthogonalLoop=1;jettySize=auto;html=1;exitX=0;exitY=0.75;exitDx=0;exitDy=0;entryX=1;entryY=0.75;entryDx=0;entryDy=0;" parent="1" source="AbTIJx63xbjjhj7f3scQ-14" target="AbTIJx63xbjjhj7f3scQ-1" edge="1">
          <mxGeometry relative="1" as="geometry" />
        </mxCell>
        <mxCell id="AbTIJx63xbjjhj7f3scQ-27" style="edgeStyle=orthogonalEdgeStyle;rounded=0;orthogonalLoop=1;jettySize=auto;html=1;exitX=1;exitY=0.25;exitDx=0;exitDy=0;" parent="1" source="AbTIJx63xbjjhj7f3scQ-14" edge="1">
          <mxGeometry relative="1" as="geometry">
            <mxPoint x="600" y="214.72413793103453" as="targetPoint" />
          </mxGeometry>
        </mxCell>
        <mxCell id="AbTIJx63xbjjhj7f3scQ-14" value="&lt;h2&gt;Backend Tier&lt;/h2&gt;" style="swimlane;childLayout=stackLayout;horizontal=1;startSize=50;horizontalStack=0;rounded=1;fontSize=14;fontStyle=0;strokeWidth=2;resizeParent=0;resizeLast=1;shadow=0;dashed=0;align=center;arcSize=4;whiteSpace=wrap;html=1;fillColor=#fa6800;strokeColor=#C73500;movable=1;resizable=1;rotatable=1;deletable=1;editable=1;locked=0;connectable=1;fontColor=#000000;" parent="1" vertex="1">
          <mxGeometry x="320" y="160" width="160" height="220" as="geometry">
            <mxRectangle x="320" y="160" width="170" height="70" as="alternateBounds" />
          </mxGeometry>
        </mxCell>
        <mxCell id="AbTIJx63xbjjhj7f3scQ-15" value="Flask" style="rounded=1;whiteSpace=wrap;html=1;" parent="1" vertex="1">
          <mxGeometry x="330" y="260" width="140" height="30" as="geometry" />
        </mxCell>
        <mxCell id="AbTIJx63xbjjhj7f3scQ-16" value="TensorFlow" style="rounded=1;whiteSpace=wrap;html=1;" parent="1" vertex="1">
          <mxGeometry x="330" y="300" width="140" height="30" as="geometry" />
        </mxCell>
        <mxCell id="AbTIJx63xbjjhj7f3scQ-17" value="Trained AI Model" style="rounded=1;whiteSpace=wrap;html=1;" parent="1" vertex="1">
          <mxGeometry x="330" y="340" width="140" height="30" as="geometry" />
        </mxCell>
        <mxCell id="AbTIJx63xbjjhj7f3scQ-18" value="Python" style="rounded=1;whiteSpace=wrap;html=1;" parent="1" vertex="1">
          <mxGeometry x="330" y="220" width="140" height="30" as="geometry" />
        </mxCell>
        <mxCell id="AbTIJx63xbjjhj7f3scQ-19" value="&lt;h2&gt;&lt;font color=&quot;#000000&quot;&gt;Database Tier&lt;/font&gt;&lt;/h2&gt;" style="swimlane;childLayout=stackLayout;horizontal=1;startSize=50;horizontalStack=0;rounded=1;fontSize=14;fontStyle=0;strokeWidth=2;resizeParent=0;resizeLast=1;shadow=0;dashed=0;align=center;arcSize=4;whiteSpace=wrap;html=1;fillColor=#0050ef;strokeColor=#001DBC;movable=1;resizable=1;rotatable=1;deletable=1;editable=1;locked=0;connectable=1;fontColor=#ffffff;" parent="1" vertex="1">
          <mxGeometry x="600" y="160" width="160" height="220" as="geometry" />
        </mxCell>
        <mxCell id="AbTIJx63xbjjhj7f3scQ-20" value="Supabase" style="rounded=1;whiteSpace=wrap;html=1;" parent="1" vertex="1">
          <mxGeometry x="610" y="220" width="140" height="30" as="geometry" />
        </mxCell>
        <mxCell id="AbTIJx63xbjjhj7f3scQ-24" value="HTTP Request" style="text;html=1;align=center;verticalAlign=middle;whiteSpace=wrap;rounded=0;" parent="1" vertex="1">
          <mxGeometry x="210" y="190" width="90" height="30" as="geometry" />
        </mxCell>
        <mxCell id="AbTIJx63xbjjhj7f3scQ-26" value="JSON Data" style="text;html=1;align=center;verticalAlign=middle;whiteSpace=wrap;rounded=0;" parent="1" vertex="1">
          <mxGeometry x="220" y="300" width="90" height="30" as="geometry" />
        </mxCell>
        <mxCell id="AbTIJx63xbjjhj7f3scQ-28" value="Data" style="text;html=1;align=center;verticalAlign=middle;whiteSpace=wrap;rounded=0;" parent="1" vertex="1">
          <mxGeometry x="500" y="300" width="90" height="30" as="geometry" />
        </mxCell>
        <mxCell id="AbTIJx63xbjjhj7f3scQ-29" style="edgeStyle=orthogonalEdgeStyle;rounded=0;orthogonalLoop=1;jettySize=auto;html=1;exitX=0;exitY=0.75;exitDx=0;exitDy=0;entryX=1;entryY=0.75;entryDx=0;entryDy=0;" parent="1" edge="1">
          <mxGeometry relative="1" as="geometry">
            <mxPoint x="600" y="325" as="sourcePoint" />
            <mxPoint x="480" y="325" as="targetPoint" />
          </mxGeometry>
        </mxCell>
        <mxCell id="AbTIJx63xbjjhj7f3scQ-30" value="Request Data" style="text;html=1;align=center;verticalAlign=middle;whiteSpace=wrap;rounded=0;" parent="1" vertex="1">
          <mxGeometry x="490" y="190" width="90" height="30" as="geometry" />
        </mxCell>
        <mxCell id="AbTIJx63xbjjhj7f3scQ-31" value="PostgreSQL" style="rounded=1;whiteSpace=wrap;html=1;" parent="1" vertex="1">
          <mxGeometry x="610" y="260" width="140" height="30" as="geometry" />
        </mxCell>
      </root>
    </mxGraphModel>
  </diagram>
</mxfile>
